<svg id="Layer_1" data-name="Layer 1" xmlns="http://www.w3.org/2000/svg" xmlns:xlink="http://www.w3.org/1999/xlink" width="500" height="500" viewBox="0 0 500 500"><defs><linearGradient id="linear-gradient" x1="-9270.85" y1="74.16" x2="-9270.85" y2="-359.53" gradientTransform="translate(-9020.85 107.32) rotate(180)" gradientUnits="userSpaceOnUse"><stop offset="0" stop-color="#bf1a83"/><stop offset="0.5" stop-color="#da2647"/><stop offset="1" stop-color="#ed8835"/></linearGradient></defs><circle cx="250" cy="250" r="216.84" fill="url(#linear-gradient)"/><polygon points="236 401.71 232.26 412.7 249.12 447.66 274.76 405.25 272.43 397.41 236 401.71" fill="#e2b596"/><path d="M236,401.74l-3.68,11v-.06l17,34.89h-.39l25.5-42.49,0,.3-2.33-7.85.41.27c-6,.74-12.1,1.34-18.16,2S242.17,401.12,236,401.74Zm-.05-.05c6-.82,12.06-1.6,18.14-2.37s12.17-1.59,18.28-2.29l.31,0,.09.3,2.33,7.84,0,.16-.08.14-25.77,42.34-.21.35-.18-.37-16.73-35v-.06Z" fill="#2b2b2b"/><path d="M330.87,469.28c0,5.15-7.11,10.43-18.22,14.75-9.59,3.73-22.13,6.75-35.55,8.38-22,2.67-46.44,1.59-64-6.27a50.83,50.83,0,0,1-10.27-6,36.46,36.46,0,0,1-8.54-9.09s9.45-47.71,12.84-53.48c1.77-3,22.3-10,22.3-10s15.81,8.83,16.3,8.83c0,0,0,.55-.05,1.51,0,1.12,0,2.8,0,4.78.08,6.34.63,15.8,3,19.88,0,0,.94-10,2.29-17.61a39.83,39.83,0,0,1,1.77-7.24,3,3,0,0,1,.77-1.21l4-1.23L287.41,406,322.58,419S330.72,449.06,330.87,469.28Z" fill="#d42355"/><path d="M331,469.28a7.68,7.68,0,0,1-1.62,4.44,18.07,18.07,0,0,1-3.33,3.38A46.51,46.51,0,0,1,318,482a109.54,109.54,0,0,1-17.69,6.64,168.1,168.1,0,0,1-37.3,6.27c-1.58.07-3.16.14-4.74.16s-3.17,0-4.75,0c-3.17,0-6.34-.2-9.5-.44a103.21,103.21,0,0,1-18.77-3.14,69,69,0,0,1-17.67-7.17,40.81,40.81,0,0,1-13.83-13l-.14-.21.05-.23,4.16-19.48c1.37-6.5,2.77-13,4.32-19.45.81-3.23,1.53-6.47,2.46-9.68.21-.81.47-1.61.74-2.41.14-.41.24-.8.41-1.21l.53-1.22.14-.31.26-.36a4.42,4.42,0,0,1,.53-.53,9.78,9.78,0,0,1,1.09-.8,24.9,24.9,0,0,1,2.22-1.28c3-1.56,6.07-2.86,9.16-4.12s6.2-2.44,9.34-3.57l.47-.17.47.25,8.15,4.39,4.09,2.17,2,1.07,1,.51.49.24.24.11a.39.39,0,0,0-.29,0l1.37,1.42c-.07,2.16,0,4.38,0,6.56s.15,4.38.32,6.55.41,4.33.79,6.44a19.8,19.8,0,0,0,1.82,5.78l-2.9.65c.41-4.47.9-8.89,1.51-13.34.32-2.22.66-4.44,1.09-6.67.22-1.11.46-2.23.77-3.37.17-.57.34-1.14.57-1.74a8.67,8.67,0,0,1,.44-1,3.44,3.44,0,0,1,1-1.21l.2-.16.3-.09,17-5.25,17-5.15.54-.17.5.19q8.77,3.3,17.51,6.67c5.83,2.25,11.64,4.55,17.45,6.85l.5.2.12.48c1,4.17,1.87,8.34,2.71,12.53s1.58,8.38,2.24,12.6,1.28,8.43,1.71,12.67S331,465,331,469.28Zm-.32,0a125.72,125.72,0,0,0-1-12.71q-.84-6.33-2.08-12.59c-1.7-8.32-3.7-16.61-6.05-24.75l.62.68c-5.92-2-11.83-4-17.73-6.09s-11.78-4.15-17.66-6.27l1,0L271,412.9,254,418.14l.5-.25c.19-.16.05-.05,0,.09s-.17.35-.26.57a14.82,14.82,0,0,0-.46,1.42c-.28,1-.53,2.06-.75,3.12-.44,2.13-.8,4.3-1.14,6.48-.65,4.35-1.19,8.76-1.65,13.15l-.53,5-2.37-4.38a22,22,0,0,1-2.12-6.83c-.38-2.26-.6-4.51-.75-6.75s-.22-4.49-.25-6.72,0-4.46.12-6.72l1.37,1.42a3.07,3.07,0,0,1-.83-.22l-.29-.14-.54-.28-1-.56-2-1.12-4.05-2.27c-2.69-1.52-5.39-3-8.06-4.59l.93.08c-3.13,1-6.26,2.1-9.36,3.24s-6.19,2.34-9.12,3.76a23.85,23.85,0,0,0-2.12,1.15,9.48,9.48,0,0,0-.93.64,3,3,0,0,0-.36.33l-.12.14-.12.26-.49,1.05c-.15.36-.28.76-.42,1.13-.28.77-.55,1.54-.78,2.33-1,3.14-1.86,6.35-2.67,9.56-1.6,6.42-3.07,12.89-4.51,19.37s-2.7,13-3.91,19.51l-.09-.45a38.47,38.47,0,0,0,13.73,12.11,67.1,67.1,0,0,0,17.36,6.36c12.08,2.81,24.61,3.4,37,3A186.35,186.35,0,0,0,300,487.4a98.06,98.06,0,0,0,17.78-5.89,40.93,40.93,0,0,0,8.07-4.71,17.62,17.62,0,0,0,3.28-3.29A7.36,7.36,0,0,0,330.71,469.28Z" fill="#2b2b2b"/><path d="M270.36,406l-16.85,10.48s5.94,2.76,10.81,18.34c0,0,13.29-18.12,23.09-28.82l-9.74-3.42Z" fill="#fff"/><path d="M270.45,406.19c-1.41.87-2.83,1.71-4.22,2.61s-2.78,1.8-4.15,2.72l-8.17,5.64-.08-1.33a7.36,7.36,0,0,1,1.31.82c.38.29.74.61,1.09.93a19.69,19.69,0,0,1,1.9,2.09,33.45,33.45,0,0,1,3.07,4.66c.47.8.84,1.64,1.27,2.46l1.14,2.52,1,2.56.93,2.6-2.29-.39c3.56-5.05,7.2-10,10.87-15,1.85-2.47,3.76-4.91,5.77-7.27a92.85,92.85,0,0,1,6.37-6.8l.62,2.47c-.79-.33-1.57-.7-2.36-1.05l-2.36-1.08c-1.57-.72-3.13-1.46-4.71-2.15l.46,0c-1.26.46-2.51,1-3.76,1.46S271.69,405.67,270.45,406.19Zm-.18-.32c1.2-.61,2.41-1.2,3.6-1.84s2.37-1.29,3.55-2l.17-.1.29.08c1.66.45,3.35.84,5,1.26l2.51.63c.84.22,1.68.42,2.51.66l2.07.6-1.45,1.87c-1.87,2.42-3.81,4.77-5.73,7.16s-3.89,4.73-5.87,7.07c-4,4.68-7.82,9.48-11.57,14.33l-1.56,2-.73-2.39-.79-2.55-.87-2.51-1-2.46c-.37-.8-.7-1.63-1.11-2.4a30.81,30.81,0,0,0-2.68-4.51,24.79,24.79,0,0,0-1.63-2c-.3-.3-.59-.61-.91-.88a7.94,7.94,0,0,0-.92-.71l-1.19-.71,1.11-.62,8.68-4.85c1.43-.82,2.87-1.65,4.27-2.51S268.87,406.75,270.27,405.87Z" fill="#2b2b2b"/><path d="M233.9,404.83s6.57,8.18,12.36,11.27c0,0-6.26,4.43-7.19,16.79,0,0-8-14.52-12.79-24Z" fill="#fff"/><path d="M233.94,404.65a1,1,0,0,1,.19.17l.09.09.17.2.36.38.72.76c.48.5,1,1,1.47,1.49,1,1,2,1.94,3.05,2.85a32.61,32.61,0,0,0,6.68,4.73l1.17.58-1.07.92a14.68,14.68,0,0,0-2.73,3.35,22.73,22.73,0,0,0-1.9,4,28,28,0,0,0-1.13,4.34c-.15.73-.22,1.48-.33,2.22l-.17,2.25-.35,4.54-2.35-4-3.48-5.87c-1.17-1.94-2.33-3.9-3.41-5.9s-2.08-4.05-3-6.12-1.88-4.15-2.73-6.27l-.5-1.24,1-.45C228.59,406.48,231.47,405.47,233.94,404.65Zm-.08.36c-2.61,1.86-4.8,3.53-7,4.95l.54-1.68c1.2,1.92,2.38,3.86,3.52,5.82s2.27,3.92,3.34,5.92,2,4,3,6.08,2,4.07,3,6.1l-2.69.58.33-2.41c.16-.79.28-1.6.49-2.38a30.76,30.76,0,0,1,1.51-4.65,25.26,25.26,0,0,1,2.35-4.3,15.77,15.77,0,0,1,3.42-3.67l.1,1.51a33.92,33.92,0,0,1-6.61-5.49c-1-1-1.93-2.07-2.84-3.14-.46-.54-.9-1.08-1.34-1.63l-.65-.83-.32-.42-.16-.21-.08-.11S233.85,405,233.86,405Z" fill="#2b2b2b"/><path d="M308.25,485.4l-.69-7-.74-6.91c-.51-4.6-1.07-9.2-1.75-13.77-.35-2.29-.72-4.57-1.21-6.81-.24-1.13-.59-2.15-.85-3.39a13.56,13.56,0,0,1-.19-1.8c0-.6,0-1.2.12-1.79a19.76,19.76,0,0,1,2.36-6.63,31.51,31.51,0,0,1,4-5.68,31.91,31.91,0,0,0-3.69,5.86,19.28,19.28,0,0,0-1.94,6.53c0,.56,0,1.12,0,1.68a11.42,11.42,0,0,0,.26,1.64c.26,1,.72,2.18,1,3.31.63,2.26,1.13,4.53,1.6,6.82.93,4.56,1.74,9.14,2.51,13.72l1.11,6.88,1,6.82Z" fill="#2b2b2b"/><path d="M315.16,426.77c1-1.52,2.06-3,3.13-4.44l3.27-4.34,1.94,1.92-4.22,3.36C317.88,424.41,316.49,425.55,315.16,426.77Z" fill="#2b2b2b"/><polygon points="204.85 482.56 211.86 434.86 207.85 482.56 204.85 482.56" fill="#2b2b2b"/><path d="M210.47,423.86a36.75,36.75,0,0,1-4-6.08l1.35-.56A35.69,35.69,0,0,0,210.47,423.86Z" fill="#2b2b2b"/><path d="M160.22,308.13s-18.09,4.46-25.9-24.33c-4.32-15.91-25.12-27.2-2.75-44.45s24.92,26.13,25.9,33.55S160.22,308.13,160.22,308.13Z" fill="#efc2a3"/><path d="M160.35,308.23a3.37,3.37,0,0,1-.8.24l-.7.13c-.48.09-.95.1-1.43.16a18.75,18.75,0,0,1-2.9-.06,18.29,18.29,0,0,1-5.62-1.58,25.06,25.06,0,0,1-9.12-7.35,45,45,0,0,1-5.78-10.2c-.67-1.79-1.3-3.68-1.92-5.45a27.6,27.6,0,0,0-2.06-4.77c-1.69-3.12-3.8-6.13-5.85-9.35S120,263.33,119,259.05a16.48,16.48,0,0,1-.23-6.72,18.1,18.1,0,0,1,2.4-6.21,27,27,0,0,1,3.88-5,44.4,44.4,0,0,1,4.49-4c.8-.62,1.68-1.2,2.53-1.79l1.39-.79a10.5,10.5,0,0,1,1.46-.74,14.13,14.13,0,0,1,6.85-1.41,11.71,11.71,0,0,1,6.79,2.78,18.32,18.32,0,0,1,4.16,5.14,45,45,0,0,1,4.11,11.26A87.9,87.9,0,0,1,158.69,263c.43,3.81.68,7.54,1,11.28s.4,7.55.52,11.31l.18,11.28.06,5.64,0,2.82v2.47A2.45,2.45,0,0,1,160.35,308.23Zm-.27-.2-1.65-22.33c-.3-3.74-.6-7.48-1-11.2s-.81-7.46-1.35-11.16a102.88,102.88,0,0,0-2.14-11,42.34,42.34,0,0,0-4-10.39,15.78,15.78,0,0,0-3.48-4.25,8.48,8.48,0,0,0-4.94-2,10.86,10.86,0,0,0-5.28,1.16,8.39,8.39,0,0,0-1.23.63l-1.2.69c-.75.54-1.52,1.06-2.25,1.62a42.17,42.17,0,0,0-4.18,3.7,23.25,23.25,0,0,0-3.46,4.33,14.68,14.68,0,0,0-2,5.09,13.76,13.76,0,0,0,.14,5.46c.81,3.62,2.71,6.91,4.64,10.09s4,6.33,5.71,9.72a29.59,29.59,0,0,1,2.07,5.27l1.68,5.35a43.1,43.1,0,0,0,5.08,9.93,23.63,23.63,0,0,0,8.19,7.4,17.41,17.41,0,0,0,5.24,1.8,17.21,17.21,0,0,0,2.77.27c.46,0,.93,0,1.39-.05.23,0,.46,0,.69-.07S160,308,160.08,308Z" fill="#2b2b2b"/><path d="M132.41,260.63s-6.67-11.3,2.44-11.38,22.21,6.45,13.67,21,12,13.44,6.67,18.23-13.3-.13-13.3-.13l7.27-.47s-18.29-2.39-8-21.09-4.34-5.45-4.34-5.45,2.49-5.43,4.78-6.52S131.89,247.84,132.41,260.63Z" fill="#2b2b2b" opacity="0.2"/><path d="M351.12,312.17s18.42,3,23.58-26.36c2.84-16.2,22.53-29.15-1.33-44.51s-22.44,28.08-22.74,35.54S351.12,312.17,351.12,312.17Z" fill="#efc2a3"/><path d="M351.25,312.06c.06-.09.37,0,.58-.05l.69,0c.46,0,.92-.12,1.37-.17a18.42,18.42,0,0,0,2.65-.69,17.41,17.41,0,0,0,4.78-2.44,22.38,22.38,0,0,0,6.71-8.15,42.21,42.21,0,0,0,3.58-10.11c.3-1.81.63-3.52,1-5.39a32.88,32.88,0,0,1,1.55-5.83,109.52,109.52,0,0,1,4.67-10.46c1.57-3.3,2.95-6.59,3.26-9.69a11.4,11.4,0,0,0-.37-4.42,12.24,12.24,0,0,0-2.12-4,30.08,30.08,0,0,0-7.65-6.63c-.72-.47-1.44-.87-2.16-1.31l-1.1-.51a5.39,5.39,0,0,0-1.09-.46,8.36,8.36,0,0,0-4.08-.62,5.72,5.72,0,0,0-3.28,1.66,13.79,13.79,0,0,0-2.58,3.75,31.65,31.65,0,0,0-1.81,4.79c-.47,1.69-.87,3.43-1.19,5.2-.63,3.55-1.06,7.19-1.35,10.87-.15,1.83-.26,3.68-.34,5.54l-.14,2.81-.08,1.44-.1,1.36c-.21,3.69-.3,7.44-.43,11.18l-.43,11.23-.19,5.62-.14,2.82-.07,1.4,0,.71v.35A1.29,1.29,0,0,1,351.25,312.06Zm-.26.22a2.49,2.49,0,0,1-.05-.46v-.35l0-.7,0-1.41-.07-2.81-.15-5.61-.23-11.24c-.05-3.74-.1-7.49-.06-11.24s.09-7.49.28-11.24A102.72,102.72,0,0,1,351.73,256a42.5,42.5,0,0,1,3-10.86,16.41,16.41,0,0,1,3.2-4.72,9,9,0,0,1,5.07-2.59,11.46,11.46,0,0,1,5.66.74,9,9,0,0,1,1.33.54l1.29.6c.82.47,1.65.94,2.44,1.44a33,33,0,0,1,8.45,7.49,15.59,15.59,0,0,1,2.6,5.08,14.15,14.15,0,0,1,.4,5.68c-.48,3.8-2.1,7.29-3.76,10.63s-3.48,6.64-4.84,10.11a29.26,29.26,0,0,0-1.59,5.34l-1.2,5.5a43.44,43.44,0,0,1-4.24,10.43,23.66,23.66,0,0,1-7.66,8.19,17.83,17.83,0,0,1-5.18,2.25,16.46,16.46,0,0,1-2.79.49c-.47,0-.94.08-1.42.06h-.71A2.92,2.92,0,0,1,351,312.28Z" fill="#2b2b2b"/><path d="M374.48,262.58s5.6-11.81-3.48-11.15-21.53,8.24-11.69,22.09-10.72,14.37-5,18.7S367.57,291,367.57,291l-7.29.12s18-3.86,6.1-21.66,3.82-5.79,3.82-5.79-3-5.2-5.35-6.1S373.83,249.78,374.48,262.58Z" fill="#2b2b2b" opacity="0.2"/><path d="M155.9,286.34s-18.23-17.82-20.74-47.29l-4,17S118.3,220.64,123,190.77c0,0-7.09,10.93-8,16,0,0-8.46-20.53,5.34-57l-16.82,10.94s9.28-18.64,20.34-27.49c0,0-17.59,2.84-26.42.15,0,0,30-24,53.37-32.92,0,0-21.39-.1-29.82,3.94,0,0,21-28.78,45.91-31.47L144.32,60.79l26.86.71S166.69,50,154.53,39.65A88.91,88.91,0,0,1,182.78,50.4s-18.67-19.78-21.6-33.16c0,0,39.67,14.71,48.39,16.42,0,0-17.55-20.42-18.93-21.49,0,0,32.51,4.38,46.46,14.91,0,0-5.72-12.45-4.71-20.8,0,0,27.56,14.3,66.31,47.49,0,0-12.91-20.17-24.23-22.81,0,0,37.12,2.56,63.69,29.83s28.35,42.05,28.35,42.05-.36-17.34-2.68-21c0,0,24.38,24.55,21.62,55.51l6.47-17.43s9.48,29.69-2,57.58c0,0,11.6-10,11.82-14.88,0,0,5.53,19.87-11.45,36.33,0,0,10.38,12,11.32,19.91,0,0-10.64-10.74-14.76-10.43,0,0,8.24,23.68,3.82,39.62,0,0-7-20.4-11.08-23.92,0,0-7.65,47.09-24.33,64.34s2-66.23,2-66.23l-15.39-59.53L279,131.29l-66.58,4.18L178,162.66l-12.88,47.2-4.48,41.3Z" fill="#2b2b2b"/><path d="M150.88,207.49s-8.11,117.24,18.48,149c9.6,11.46,17.81,18.15,23.62,22a106.5,106.5,0,0,1,14.24,11c6.85,6.42,31.34,16.54,53.25,16.57,39.44.06,62.68-29.22,64.55-32s33-40.63,34.48-95.42,6-65.92,6-65.92-10.65-25.62-14.31-50-69.05-50.79-96.45-48.42-68.91,3.88-87,43.23C159.82,174.63,169.59,186.4,150.88,207.49Z" fill="#efc2a3"/><path d="M151,207.56c-.48,10.36-.68,20.92-.65,31.37s.23,20.95.75,31.4,1.34,20.89,2.64,31.25a204.24,204.24,0,0,0,5.88,30.65,89.22,89.22,0,0,0,5.4,14.46,47.87,47.87,0,0,0,3.87,6.54,71.73,71.73,0,0,0,4.92,5.89,132,132,0,0,0,11,10.92c1.95,1.69,3.95,3.31,6,4.82,1,.76,2.09,1.48,3.16,2.19s2.21,1.47,3.3,2.23c2.18,1.52,4.32,3.11,6.39,4.79,1,.84,2.06,1.7,3.06,2.59l1.49,1.35c.47.43.88.78,1.38,1.16a45,45,0,0,0,6.41,3.93c2.27,1.17,4.62,2.23,7,3.2a110.79,110.79,0,0,0,29.9,7.57,76.34,76.34,0,0,0,30.41-3,84.06,84.06,0,0,0,27.07-14.45,83.07,83.07,0,0,0,11.18-10.6,32.91,32.91,0,0,0,2.35-3l2.36-3.17q2.3-3.15,4.44-6.4a177.38,177.38,0,0,0,14.78-27.45,167,167,0,0,0,9.66-29.67,160,160,0,0,0,3.69-31c.42-10.48.89-21,1.72-31.43.41-5.23.91-10.46,1.55-15.68.33-2.6.69-5.21,1.14-7.8a54.55,54.55,0,0,1,1.72-7.78v.41a266.13,266.13,0,0,1-12.28-38.41l-.58-2.46-.51-2.47c-.36-1.65-.66-3.31-.94-5a24.87,24.87,0,0,0-1.11-4.74,22.33,22.33,0,0,0-2.19-4.3,39.67,39.67,0,0,0-6.41-7.43,72.35,72.35,0,0,0-7.73-6.2c-10.89-7.61-23.13-13.19-35.6-17.81a170.41,170.41,0,0,0-19.1-5.74A96.89,96.89,0,0,0,259,115.59a47,47,0,0,0-4.88.18l-5,.41c-3.34.26-6.67.54-10,.88a169.12,169.12,0,0,0-19.72,3q-4.86,1.07-9.59,2.6a79.35,79.35,0,0,0-9.23,3.58A67.4,67.4,0,0,0,184,136.93a58.35,58.35,0,0,0-6.84,7.13l-.79.95-.73,1-1.47,2c-.88,1.4-1.86,2.74-2.64,4.2l-1.24,2.15-1.12,2.21a39.13,39.13,0,0,0-2,4.51,44,44,0,0,0-2.17,9.62c-.42,3.29-.6,6.64-1,10a45.08,45.08,0,0,1-2.23,9.92A49.44,49.44,0,0,1,151,207.56Zm-.31-.13a62.75,62.75,0,0,0,5.94-8.13,41.49,41.49,0,0,0,4.2-9,44.7,44.7,0,0,0,1.91-9.73c.32-3.31.41-6.67.74-10.05a43.78,43.78,0,0,1,2.06-10,39.59,39.59,0,0,1,2-4.73l1.11-2.3,1.24-2.23c.78-1.51,1.76-2.91,2.64-4.36l1.48-2.09.74-1,.8-1a61.65,61.65,0,0,1,6.94-7.51,66.7,66.7,0,0,1,17-11.28A81.4,81.4,0,0,1,209,120.2q4.84-1.61,9.81-2.74a172.74,172.74,0,0,1,20-3.23c3.35-.37,6.7-.67,10-1l5-.43a49.12,49.12,0,0,1,5.16-.23,93.64,93.64,0,0,1,20.22,2.87,171.58,171.58,0,0,1,19.39,6,167.24,167.24,0,0,1,18.56,8.14,130,130,0,0,1,17.35,10.53,76.1,76.1,0,0,1,7.83,6.53,41.58,41.58,0,0,1,6.55,7.91,24.21,24.21,0,0,1,2.28,4.69,27,27,0,0,1,1.09,5.06c.25,1.65.52,3.3.84,4.94l.46,2.46.53,2.45c1.4,6.54,3.2,13,5.19,19.38s4.21,12.72,6.69,18.92l.08.19-.07.22a53.87,53.87,0,0,0-1.72,7.55c-.45,2.57-.78,5.17-1.1,7.76q-.9,7.8-1.46,15.63-1.12,15.67-1.44,31.39a162.5,162.5,0,0,1-3.25,31.39,168.56,168.56,0,0,1-9.25,30.23,177.28,177.28,0,0,1-14.66,28q-2.15,3.33-4.45,6.56l-2.3,3.17a35.82,35.82,0,0,1-2.49,3.22,85.69,85.69,0,0,1-11.53,11.09,87.16,87.16,0,0,1-28,15.18,79.73,79.73,0,0,1-31.75,3.33,103,103,0,0,1-15.73-2.79,117.43,117.43,0,0,1-15.17-5c-2.47-1-4.91-2.1-7.3-3.33a46.69,46.69,0,0,1-7-4.3c-.55-.42-1.13-.92-1.62-1.38l-1.42-1.3c-.95-.85-1.93-1.69-2.93-2.5-2-1.63-4.05-3.19-6.16-4.68q-1.59-1.11-3.21-2.19c-1.1-.74-2.22-1.5-3.29-2.3-2.15-1.59-4.22-3.29-6.22-5a123.24,123.24,0,0,1-11.22-11.29,75.13,75.13,0,0,1-5.08-6.23,50.89,50.89,0,0,1-4.05-7,92.31,92.31,0,0,1-5.41-15,207.31,207.31,0,0,1-5.6-31.14c-1.12-10.47-1.74-21-2.05-31.47s-.34-21,0-31.5q.21-7.86.59-15.72C150,217.92,150.28,212.76,150.72,207.43Z" fill="#2b2b2b"/><path d="M164.43,224.71s4.42-14.77,18.25-18.49,47.54,8.51,51,16.57a3,3,0,0,1-.64,3.65s-24.48-11.41-44.8-8.29S164.43,224.71,164.43,224.71Z" fill="#2b2b2b"/><path d="M348.11,225.94s-4.41-14.77-18.24-18.5-47.54,8.51-51,16.58a3,3,0,0,0,.64,3.65s24.47-11.41,44.79-8.3S348.11,225.94,348.11,225.94Z" fill="#2b2b2b"/><path d="M256.84,236.46c1.34,6.29,2.85,12.42,4.65,18.37.91,3,1.89,5.89,2.95,8.72a56.24,56.24,0,0,0,3.66,8.1,25.11,25.11,0,0,0,2.41,3.52l.32.4a4.06,4.06,0,0,1,.37.47c.33.43.62.89.91,1.35a16.65,16.65,0,0,1,1.47,3,15.83,15.83,0,0,1,.87,6.73,17.37,17.37,0,0,1-1.75,6.09,24,24,0,0,1-7.17,8.5,23.56,23.56,0,0,1-9.57,4.35c1.38-3.3,2.73-6.19,3.88-9a41.77,41.77,0,0,0,2.53-7.71,22.84,22.84,0,0,0,.35-3.13,16.71,16.71,0,0,0-.08-2.66,10.46,10.46,0,0,0-.25-1.39c-.07-.23-.15-.48-.24-.72a3.9,3.9,0,0,0-.23-.55l-.27-.63c-.72-1.65-1.31-3.3-1.9-4.93a69.15,69.15,0,0,1-3.88-19.56,90.45,90.45,0,0,1,0-9.74c.09-1.61.2-3.23.35-4.83S256.54,238,256.84,236.46Z" fill="#2b2b2b"/><path d="M181.7,243.7s18.34,3,30.46,2.74,16.15,0,17.86-.56c0,0-3.16-6.64-6.47-8.73s-15.11-6-22.14-4.65-8.69,2.81-10.38,3.82S180.64,243,181.7,243.7Z" fill="#fff" opacity="0.6"/><path d="M230.16,246.16a29.24,29.24,0,0,0-4.28-5.21,27.25,27.25,0,0,0-5.32-4.12,22.75,22.75,0,0,0-12.84-3.24c-1.11.12-2.23.25-3.33.42s-2.21.46-3.3.73a45.3,45.3,0,0,0-6.41,2.1,44.16,44.16,0,0,0-6,3.07c-1.93,1.16-3.77,2.49-5.75,3.63l-.06-.35c3.85.77,7.72,1.42,11.61,1.91l0,.28c-1,0-2,.11-3,.1s-2,0-3-.06c-2-.07-4-.22-6-.44l-4-.44L182,242c1.7-1.25,3.51-2.68,5.42-4a45,45,0,0,1,6.21-3.52,45.69,45.69,0,0,1,6.75-2.34,35.4,35.4,0,0,1,3.48-.75c1.21-.17,2.47-.3,3.7-.41a23.24,23.24,0,0,1,14,4.23c.49.35,1,.71,1.45,1.09l1.34,1.2a26.52,26.52,0,0,1,4.45,5.49A19.29,19.29,0,0,1,230.4,246Z" fill="#2b2b2b"/><path d="M201.41,233.3s-5.77,9.35,2.49,11.94c7.1,2.24,18.8,2.38,17.33-8.78C221.23,236.46,212.41,228.71,201.41,233.3Z" fill="#2b2b2b"/><ellipse cx="203.02" cy="236.79" rx="1.85" ry="1.74" fill="#fff"/><path d="M336.2,245.36s-18.42,2.57-30.53,2-16.15-.46-17.84-1c0,0,3.35-6.55,6.72-8.55s15.28-5.57,22.27-4.08,8.6,3,10.26,4.08S337.27,244.67,336.2,245.36Z" fill="#fff" opacity="0.6"/><path d="M287.45,246.43a19,19,0,0,1,1.66-3.07,22.92,22.92,0,0,1,2.1-2.82,25.36,25.36,0,0,1,5.34-4.76,23.18,23.18,0,0,1,14.11-3.88c1.23.13,2.48.3,3.69.49s2.32.48,3.45.84a46.65,46.65,0,0,1,6.7,2.51,45.27,45.27,0,0,1,6.11,3.69c1.88,1.41,3.64,2.88,5.32,4.18l3.45,2.68-4,.33c-2,.17-4,.27-6,.29-1,0-2,0-3,0s-2-.1-3-.17l0-.28c3.91-.39,7.8-.95,11.66-1.62l-.07.35c-1.94-1.19-3.74-2.56-5.65-3.78a43.07,43.07,0,0,0-12.28-5.48c-1.08-.31-2.18-.57-3.28-.82s-2.21-.36-3.32-.5a22.74,22.74,0,0,0-12.92,2.93,27.42,27.42,0,0,0-5.43,4,29.26,29.26,0,0,0-4.41,5.09Z" fill="#2b2b2b"/><path d="M316.8,234.46s5.5,9.5-2.84,11.88c-7.16,2-18.86,1.89-17.07-9.23C296.89,237.11,305.93,229.6,316.8,234.46Z" fill="#2b2b2b"/><ellipse cx="315.09" cy="237.91" rx="1.85" ry="1.74" fill="#fff"/><g opacity="0.1"><path d="M227.17,285.05a48.25,48.25,0,0,0-17,19.41c-.35.8-.65,1.61-1,2.42-.16.4-.34.8-.48,1.21l-.36,1.26a39.76,39.76,0,0,0-1.7,10.28h-.23a26.84,26.84,0,0,1,.24-10.78l.27-1.35c.11-.44.28-.87.42-1.3.3-.87.58-1.74.9-2.6a44.11,44.11,0,0,1,2.52-4.88l.73-1.16c.26-.38.54-.74.81-1.11.57-.72,1-1.5,1.68-2.16s1.21-1.36,1.85-2,1.3-1.27,2-1.86a29.06,29.06,0,0,1,9.21-5.56Z" fill="#2b2b2b"/></g><path d="M286.76,342.11l-17,.52c-5.65.17-11.32.3-16.95.56-1.39.07-2.91.11-4.35.07s-2.89-.16-4.32-.31a83.59,83.59,0,0,1-8.45-1.37l-16.54-3.68,0-.28a77.05,77.05,0,0,1,17,1.17c5.61.87,11,2.42,16.55,2.25,5.68,0,11.34.13,17,.25s11.32.31,17,.54Z" fill="#2b2b2b"/><path d="M219.85,331.55a7.15,7.15,0,0,1-.27,6.22,9.68,9.68,0,0,1-2,2.48c-.4.35-.84.66-1.26,1l-1.37.81-.08-.14a9.86,9.86,0,0,1,.94-1.41c.28-.44.59-.84.88-1.23.55-.8,1-1.54,1.43-2.28a14,14,0,0,0,1-2.37,20.88,20.88,0,0,0,.61-3Z" fill="#2b2b2b"/><g opacity="0.1"><path d="M183.24,256a10.3,10.3,0,0,1,3.1-1.64,15.38,15.38,0,0,1,3.38-.62c1.13-.16,2.27-.29,3.42-.35a24.67,24.67,0,0,1,3.44,0v.17A52.48,52.48,0,0,0,190,255a26,26,0,0,1-3.24.92,13.6,13.6,0,0,1-3.46.18Z" fill="#2b2b2b"/></g><g opacity="0.1"><path d="M179.49,251.08a4.92,4.92,0,0,1,2.09-1.4,6.86,6.86,0,0,1,2.43-.26,13.79,13.79,0,0,1,4.79.61l0,.17a18,18,0,0,0-2.33.15c-.77.1-1.52.23-2.26.4a14.65,14.65,0,0,1-2.21.57,8.67,8.67,0,0,1-2.42-.08Z" fill="#2b2b2b"/></g><g opacity="0.1"><path d="M209.31,255.94a44.62,44.62,0,0,0,4.75-.58,39.33,39.33,0,0,0,4.66-1.08,26,26,0,0,0,4.46-1.67,14.29,14.29,0,0,0,3.88-2.74l.12.12a9.3,9.3,0,0,1-3.4,3.8,16.7,16.7,0,0,1-4.59,2.1c-.81.22-1.62.4-2.44.55a22.91,22.91,0,0,1-2.47.23,14.74,14.74,0,0,1-5-.56Z" fill="#2b2b2b"/></g><g opacity="0.1"><path d="M311.33,255.67a39.84,39.84,0,0,0,9.17-1,34.18,34.18,0,0,0,4.46-1.22,31.76,31.76,0,0,0,4.24-1.84l.08.14a12.58,12.58,0,0,1-3.88,2.94,17.54,17.54,0,0,1-2.22,1c-.76.25-1.54.47-2.32.65s-1.58.28-2.38.38a21.38,21.38,0,0,1-2.4.07,13.42,13.42,0,0,1-4.76-.92Z" fill="#2b2b2b"/></g><g opacity="0.1"><path d="M284.49,246.34a6.87,6.87,0,0,0-2.21,2.43,5.82,5.82,0,0,0-.66,3.19,8.43,8.43,0,0,0,1,3.15c.28.48.57,1,.88,1.42l1,1.32-.09.07a13,13,0,0,1-1.43-1,13.82,13.82,0,0,1-1.17-1.35,7.33,7.33,0,0,1-1.31-3.48,6.4,6.4,0,0,1,.18-2,5.44,5.44,0,0,1,3.75-3.85Z" fill="#2b2b2b"/></g><path d="M251.35,333.9c-.1.28-6-3.24-6.77-4.26s5-6.49,4.61-8.25S254.88,323.89,251.35,333.9Z" fill="#2b2b2b" opacity="0.05"/><path d="M249,360.19s8,1.87,13.49,0c0,0,.61,2.62-2.6,6.16l0-2.56s-1.09,3.86-3.72,5.85c0,0-3.77-3-4.14-6.51l.37,3.55S248.89,363.39,249,360.19Z" fill="#2b2b2b" opacity="0.2"/><path d="M358.17,166.1l-10.56,30.21,9.43-5.73-.83,5.73,2.36-2.58-3,22s10.29-11.58,13.6-13.06S372.3,165.17,358.17,166.1Z" fill="#2b2b2b"/><path d="M308.54,116.78s-20.38,24.85-76.9,28.92c0,0,20.13-12.17,24.38-20.64,0,0-50.45,12.49-75.48,32.7,0,0,1.45-13.54,12.24-22.62,0,0-28.25,10.75-36.29,29.48s-10.79-40.13,34.72-50.38,97.51-12.67,101.44-10.81S308.54,116.78,308.54,116.78Z" fill="#2b2b2b"/></svg>